<?xml version="1.0" standalone="no"?><!DOCTYPE svg PUBLIC "-//W3C//DTD SVG 1.1//EN" "http://www.w3.org/Graphics/SVG/1.1/DTD/svg11.dtd"><svg t="1733991003035" class="icon" viewBox="0 0 1024 1024" version="1.1" xmlns="http://www.w3.org/2000/svg" p-id="13593" xmlns:xlink="http://www.w3.org/1999/xlink" width="200" height="200"><path d="M950.857143 661.942857c0-9.142857-3.657143-18.285714-10.971429-25.6l-113.371428-113.371428c-14.628571-14.628571-38.4-14.628571-51.2 0L588.8 709.485714c-3.657143 0-7.314286 0-9.142857 1.828572-12.8 3.657143-21.942857 14.628571-25.6 27.428571l-38.4 168.228572c-3.657143 12.8 0 25.6 9.142857 34.742857 7.314286 7.314286 16.457143 10.971429 25.6 10.971428 3.657143 0 5.485714 0 9.142857-1.828571l168.228572-38.4c12.8-3.657143 23.771429-12.8 27.428571-25.6 0-3.657143 1.828571-7.314286 1.828571-9.142857l186.514286-186.514286c3.657143-9.142857 7.314286-20.114286 7.314286-29.257143z"  p-id="13594"></path><path d="M442.514286 888.685714l38.4-168.228571c9.142857-36.571429 34.742857-65.828571 69.485714-78.628572l171.885714-171.885714c20.114286-20.114286 47.542857-31.085714 76.8-31.085714s56.685714 10.971429 76.8 31.085714V109.714286c0-20.114286-16.457143-36.571429-36.571428-36.571429h-731.428572c-20.114286 0-36.571429 16.457143-36.571428 36.571429v768c0 20.114286 16.457143 36.571429 36.571428 36.571428h329.142857c1.828571-9.142857 3.657143-16.457143 5.485715-25.6zM292.571429 292.571429h365.714285v73.142857H292.571429v-73.142857z m0 164.571428h256v73.142857H292.571429v-73.142857z m0 237.714286v-73.142857h146.285714v73.142857h-146.285714zM819.2 912.457143v1.828571H841.142857c20.114286 0 36.571429-16.457143 36.571429-36.571428v-23.771429l-58.514286 58.514286z"  p-id="13595"></path></svg>