<?xml version="1.0" standalone="no"?><!DOCTYPE svg PUBLIC "-//W3C//DTD SVG 1.1//EN" "http://www.w3.org/Graphics/SVG/1.1/DTD/svg11.dtd"><svg t="1733990760388" class="icon" viewBox="0 0 1024 1024" version="1.1" xmlns="http://www.w3.org/2000/svg" p-id="8400" xmlns:xlink="http://www.w3.org/1999/xlink" width="200" height="200"><path d="M769.536 76.629333v139.946667h118.954667z" p-id="8401"></path><path d="M751.445333 288.597333c-29.866667 0-54.101333-24.234667-54.101333-54.101333V34.133333H172.714667C140.117333 34.133333 113.834667 65.877333 113.834667 104.96v814.08c0 39.082667 26.453333 70.826667 59.050666 70.826667h678.4c32.597333 0 59.050667-31.744 59.050667-70.826667V288.597333h-158.890667z m-58.197333 195.413334L446.805333 730.453333c-2.56 2.56-5.802667 4.266667-9.216 4.949334l-93.013333 18.432c-12.629333 2.56-23.722667-8.533333-21.162667-21.162667l18.432-93.013333c0.682667-3.584 2.389333-6.656 4.949334-9.216L593.237333 384c6.997333-6.997333 18.432-6.997333 25.429334 0l74.581333 74.581333c6.997333 6.997333 6.997333 18.432 0 25.429334z"  p-id="8402"></path></svg>