<?xml version="1.0" standalone="no"?><!DOCTYPE svg PUBLIC "-//W3C//DTD SVG 1.1//EN" "http://www.w3.org/Graphics/SVG/1.1/DTD/svg11.dtd"><svg t="1733990891804" class="icon" viewBox="0 0 1024 1024" version="1.1" xmlns="http://www.w3.org/2000/svg" p-id="10704" xmlns:xlink="http://www.w3.org/1999/xlink" width="200" height="200"><path d="M746.667 469.333a234.667 234.667 0 1 1 0 469.334 234.667 234.667 0 0 1 0-469.334zM512 42.667a234.496 234.496 0 0 1 208.213 342.485 319.915 319.915 0 0 0-230.442 509.696c-33.195 0.256-73.088 1.024-114.688 1.152h-22.187l-10.795-0.085-21.717-0.214c-119.253-1.877-235.05-12.714-235.05-57.813 0-128.47 129.28-237.27 306.303-271.83 15.19-7.594 22.784-20.778 22.784-39.509 0-18.944-10.538-36.949-31.658-53.973a233.941 233.941 0 0 1-105.43-195.584A234.496 234.496 0 0 1 512 42.667z m305.664 565.93l-3.712 3.84-101.888 116.907-30.336-32.085-3.84-3.755a42.667 42.667 0 0 0-62.592 57.045l3.37 4.182 63.147 68.053 3.883 3.797a42.667 42.667 0 0 0 56.448-1.066l3.797-3.926 133.206-154.026 3.2-4.352a42.667 42.667 0 0 0-64.683-54.614z" p-id="10705"></path></svg>