<?xml version="1.0" standalone="no"?><!DOCTYPE svg PUBLIC "-//W3C//DTD SVG 1.1//EN" "http://www.w3.org/Graphics/SVG/1.1/DTD/svg11.dtd"><svg t="1733990632526" class="icon" viewBox="0 0 1024 1024" version="1.1" xmlns="http://www.w3.org/2000/svg" p-id="7135" xmlns:xlink="http://www.w3.org/1999/xlink" width="400" height="400"><path d="M618.666667 192v170.666667a42.666667 42.666667 0 0 0 42.666666 42.666666h170.666667v384a42.666667 42.666667 0 0 1-42.666667 42.666667H277.333333a42.666667 42.666667 0 0 1-42.666666-42.666667V234.666667a42.666667 42.666667 0 0 1 42.666666-42.666667h341.333334z m42.666666 0l170.666667 170.666667h-149.333333a21.333333 21.333333 0 0 1-21.333334-21.333334V192z m-179.626666 456.149333l-60.373334-60.352a21.333333 21.333333 0 0 0-30.144 30.165334l75.413334 75.434666a21.333333 21.333333 0 0 0 30.165333 0l165.930667-165.930666a21.333333 21.333333 0 0 0-30.165334-30.186667l-150.826666 150.869333z" fill="#000000" p-id="7136"></path></svg>