<?xml version="1.0" standalone="no"?><!DOCTYPE svg PUBLIC "-//W3C//DTD SVG 1.1//EN" "http://www.w3.org/Graphics/SVG/1.1/DTD/svg11.dtd"><svg t="1733991781209" class="icon" viewBox="0 0 1024 1024" version="1.1" xmlns="http://www.w3.org/2000/svg" p-id="17739" xmlns:xlink="http://www.w3.org/1999/xlink" width="200" height="200"><path d="M682.666667 167.253333H341.333333V68.266667c0-18.773333 15.36-34.133333 34.133334-34.133334h273.066666c18.773333 0 34.133333 15.36 34.133334 34.133334v98.986666z"  p-id="17740"></path><path d="M909.653333 92.16h-167.253333V187.733333c0 18.773333-15.36 34.133333-34.133333 34.133334h-392.533334c-18.773333 0-34.133333-15.36-34.133333-34.133334V92.16H114.346667c-37.546667 0-69.973333 30.72-69.973334 69.973333V921.6c0 37.546667 30.72 69.973333 69.973334 69.973333h795.306666c37.546667 0 69.973333-30.72 69.973334-69.973333V162.133333c0-39.253333-30.72-69.973333-69.973334-69.973333zM750.933333 418.133333L447.146667 720.213333c-6.826667 6.826667-15.36 10.24-23.893334 10.24s-18.773333-3.413333-23.893333-10.24L273.066667 597.333333c-13.653333-13.653333-13.653333-35.84 0-49.493333 13.653333-13.653333 35.84-13.653333 49.493333 0l98.986667 98.986667L699.733333 368.64c6.826667-6.826667 15.36-10.24 23.893334-10.24 8.533333 0 18.773333 3.413333 23.893333 10.24 17.066667 13.653333 17.066667 35.84 3.413333 49.493333z"  p-id="17741"></path></svg>