<?xml version="1.0" standalone="no"?><!DOCTYPE svg PUBLIC "-//W3C//DTD SVG 1.1//EN" "http://www.w3.org/Graphics/SVG/1.1/DTD/svg11.dtd"><svg t="1733990575178" class="icon" viewBox="0 0 1024 1024" version="1.1" xmlns="http://www.w3.org/2000/svg" p-id="6949" xmlns:xlink="http://www.w3.org/1999/xlink" width="400" height="400"><path d="M898.433097 1023.236675 664.474096 1023.236675 664.474096 987.74208 664.474096 962.934029 868.281774 962.934029 868.281774 61.065971 461.048081 61.065971 461.048081 302.658218C461.048081 319.310145 447.548684 332.809542 430.896757 332.809542 430.320066 332.809542 429.747954 332.789695 429.179277 332.757635 428.6106 332.789695 428.038488 332.809542 427.461796 332.809542L155.718226 332.809542 155.718226 962.934029 359.144242 962.934029 359.144242 987.74208 359.144242 1023.236675 125.566903 1023.236675C108.914976 1023.236675 95.41558 1009.737279 95.41558 993.085352L95.41558 289.300037C95.41558 281.900368 98.085689 275.127007 102.509155 269.880295 104.538454 266.701048 107.011244 263.650421 109.913786 260.836807L363.910059 14.65507C369.271269 6.30239 378.633446 0.763325 389.295565 0.763325L898.433097 0.763325C915.085024 0.763325 928.58442 14.262721 928.58442 30.914648L928.58442 993.085352C928.58442 1009.737279 915.085024 1023.236675 898.433097 1023.236675ZM400.745434 62.931918 184.518464 272.506895 400.745434 272.506895 400.745434 62.931918ZM249.718983 688.518059 249.59647 615.661776 799.453937 615.618648 799.576832 688.475313 249.718983 688.518059ZM249.59647 408.800799 799.453937 408.757671 799.576832 481.614336 249.718983 481.657082 249.59647 408.800799ZM249.718983 585.087571 249.59647 512.231287 799.453937 512.18816 799.576832 585.044824 249.718983 585.087571ZM515.24413 730.695562 609.675402 825.153932 549.946013 825.153932 549.978072 950.046056 477.121407 950.083459 477.089348 825.153932 420.812857 825.153932 515.24413 730.695562Z" p-id="6950" fill="#000000"></path></svg>