<?xml version="1.0" standalone="no"?><!DOCTYPE svg PUBLIC "-//W3C//DTD SVG 1.1//EN" "http://www.w3.org/Graphics/SVG/1.1/DTD/svg11.dtd"><svg t="1733991117475" class="icon" viewBox="0 0 1024 1024" version="1.1" xmlns="http://www.w3.org/2000/svg" p-id="15652" xmlns:xlink="http://www.w3.org/1999/xlink" width="200" height="200"><path d="M720.9472 560.128a231.936 231.936 0 1 0 0 463.872 231.936 231.936 0 0 0 0-463.872z m112.64 300.3904H680.96v-175.616h53.8624v121.7024h99.328v53.9136h-0.6144zM858.4192 0c23.6032 0 42.3936 18.7904 42.3936 42.3936v546.816c-47.2576-44.8-121.1392-66.6112-191.3856-66.6112-56.32 0-108.3904 18.176-150.784 49.664 4.2496-4.864-10.24 7.2704-6.656 5.4272a271.5648 271.5648 0 0 0-104.1408 213.76c0 84.1728 35.1232 158.72 96.256 206.4896h-450.56A42.1376 42.1376 0 0 1 51.2 955.5968V42.3936C51.2 18.7904 69.9904 0 93.5936 0zM409.6 563.2H204.8v51.2h204.8v-51.2z m307.2-204.8H204.8v51.2h512V358.4z m0-204.8H204.8v51.2h512V153.6z"  p-id="15653"></path></svg>